<?xml version="1.0" standalone="no"?>
<!DOCTYPE svg PUBLIC "-//W3C//DTD SVG 20010904//EN"
 "http://www.w3.org/TR/2001/REC-SVG-20010904/DTD/svg10.dtd">
<svg version="1.0" xmlns="http://www.w3.org/2000/svg"
 width="2000.000000pt" height="2000.000000pt" viewBox="0 0 2000.000000 2000.000000"
 preserveAspectRatio="xMidYMid meet">

<g transform="translate(0.000000,2000.000000) scale(0.100000,-0.100000)"
fill="#000000" stroke="none">
<path d="M9650 19990 c-1705 -64 -3337 -547 -4800 -1423 -1125 -674 -2149
-1610 -2920 -2668 -1457 -2001 -2121 -4446 -1875 -6904 162 -1617 728 -3192
1630 -4540 394 -589 746 -1017 1250 -1520 506 -507 954 -875 1535 -1260 2030
-1347 4466 -1906 6875 -1579 1857 252 3597 1017 5045 2218 247 205 405 350
675 621 403 402 702 750 1016 1181 1739 2390 2331 5428 1618 8299 -392 1577
-1155 3018 -2253 4255 -156 176 -604 624 -776 776 -1190 1054 -2530 1783
-4041 2198 -945 259 -2004 382 -2979 346z m3422 -6612 c197 -41 449 -154 584
-261 88 -70 183 -183 227 -271 15 -30 33 -56 41 -59 21 -8 83 -136 120 -248
44 -129 66 -264 66 -394 0 -213 -34 -368 -114 -528 -94 -185 -3622 -6230
-3665 -6279 -56 -63 -142 -105 -248 -120 -164 -24 -297 23 -416 144 -68 70
-117 154 -1265 2168 -656 1152 -1453 2550 -1770 3105 -316 556 -595 1051 -618
1100 -63 133 -83 228 -91 430 -7 196 5 276 64 435 122 329 305 537 556 632 29
11 93 40 142 64 102 50 215 81 337 93 46 5 1408 8 3028 7 2669 -2 2952 -4
3022 -18z"/>
<path d="M7015 12523 c-28 -7 -116 -66 -142 -94 -12 -13 -35 -50 -52 -83 -25
-47 -31 -70 -31 -123 0 -62 3 -70 76 -201 79 -141 2652 -4603 2685 -4657 18
-29 19 27 19 2568 l0 2597 -1267 -1 c-698 -1 -1277 -4 -1288 -6z"/>
<path d="M10430 9898 l0 -2603 23 40 c13 22 623 1074 1357 2339 733 1264 1339
2315 1346 2335 8 22 13 86 14 167 l0 131 -37 56 c-21 31 -42 57 -47 57 -4 0
-21 11 -37 25 -61 51 -19 49 -1361 53 l-1258 3 0 -2603z"/>
</g>
</svg>
